<svg width="158" height="40" viewBox="0 0 158 40" fill="none" xmlns="http://www.w3.org/2000/svg">
<path d="M11.94 12.48C11.94 13.2933 11.7533 14.04 11.38 14.72C11.0067 15.3867 10.4333 15.9267 9.66 16.34C8.88667 16.7533 7.92667 16.96 6.78 16.96H4.66V22H1.24V7.96H6.78C7.9 7.96 8.84667 8.15333 9.62 8.54C10.3933 8.92667 10.9733 9.46 11.36 10.14C11.7467 10.82 11.94 11.6 11.94 12.48ZM6.52 14.24C7.17333 14.24 7.66 14.0867 7.98 13.78C8.3 13.4733 8.46 13.04 8.46 12.48C8.46 11.92 8.3 11.4867 7.98 11.18C7.66 10.8733 7.17333 10.72 6.52 10.72H4.66V14.24H6.52ZM17.1405 12.7C17.5405 12.0867 18.0405 11.6067 18.6405 11.26C19.2405 10.9 19.9071 10.72 20.6405 10.72V14.34H19.7005C18.8471 14.34 18.2071 14.5267 17.7805 14.9C17.3538 15.26 17.1405 15.9 17.1405 16.82V22H13.7205V10.84H17.1405V12.7ZM27.3552 22.16C26.2618 22.16 25.2752 21.9267 24.3952 21.46C23.5285 20.9933 22.8418 20.3267 22.3352 19.46C21.8418 18.5933 21.5952 17.58 21.5952 16.42C21.5952 15.2733 21.8485 14.2667 22.3552 13.4C22.8618 12.52 23.5552 11.8467 24.4352 11.38C25.3152 10.9133 26.3018 10.68 27.3952 10.68C28.4885 10.68 29.4752 10.9133 30.3552 11.38C31.2352 11.8467 31.9285 12.52 32.4352 13.4C32.9418 14.2667 33.1952 15.2733 33.1952 16.42C33.1952 17.5667 32.9352 18.58 32.4152 19.46C31.9085 20.3267 31.2085 20.9933 30.3152 21.46C29.4352 21.9267 28.4485 22.16 27.3552 22.16ZM27.3552 19.2C28.0085 19.2 28.5618 18.96 29.0152 18.48C29.4818 18 29.7152 17.3133 29.7152 16.42C29.7152 15.5267 29.4885 14.84 29.0352 14.36C28.5952 13.88 28.0485 13.64 27.3952 13.64C26.7285 13.64 26.1752 13.88 25.7352 14.36C25.2952 14.8267 25.0752 15.5133 25.0752 16.42C25.0752 17.3133 25.2885 18 25.7152 18.48C26.1552 18.96 26.7018 19.2 27.3552 19.2ZM40.0295 18.8L42.4495 10.84H46.0895L42.1295 22H37.9095L33.9495 10.84H37.6095L40.0295 18.8ZM46.8491 16.4C46.8491 15.2533 47.0624 14.2467 47.4891 13.38C47.9291 12.5133 48.5224 11.8467 49.2691 11.38C50.0157 10.9133 50.8491 10.68 51.7691 10.68C52.5557 10.68 53.2424 10.84 53.8291 11.16C54.4291 11.48 54.8891 11.9 55.2091 12.42V10.84H58.6291V22H55.2091V20.42C54.8757 20.94 54.4091 21.36 53.8091 21.68C53.2224 22 52.5357 22.16 51.7491 22.16C50.8424 22.16 50.0157 21.9267 49.2691 21.46C48.5224 20.98 47.9291 20.3067 47.4891 19.44C47.0624 18.56 46.8491 17.5467 46.8491 16.4ZM55.2091 16.42C55.2091 15.5667 54.9691 14.8933 54.4891 14.4C54.0224 13.9067 53.4491 13.66 52.7691 13.66C52.0891 13.66 51.5091 13.9067 51.0291 14.4C50.5624 14.88 50.3291 15.5467 50.3291 16.4C50.3291 17.2533 50.5624 17.9333 51.0291 18.44C51.5091 18.9333 52.0891 19.18 52.7691 19.18C53.4491 19.18 54.0224 18.9333 54.4891 18.44C54.9691 17.9467 55.2091 17.2733 55.2091 16.42ZM65.6433 22.16C64.6699 22.16 63.8033 21.9933 63.0433 21.66C62.2833 21.3267 61.6833 20.8733 61.2433 20.3C60.8033 19.7133 60.5566 19.06 60.5033 18.34H63.8833C63.9233 18.7267 64.1033 19.04 64.4233 19.28C64.7433 19.52 65.1366 19.64 65.6033 19.64C66.0299 19.64 66.3566 19.56 66.5833 19.4C66.8233 19.2267 66.9433 19.0067 66.9433 18.74C66.9433 18.42 66.7766 18.1867 66.4433 18.04C66.1099 17.88 65.5699 17.7067 64.8233 17.52C64.0233 17.3333 63.3566 17.14 62.8233 16.94C62.2899 16.7267 61.8299 16.4 61.4433 15.96C61.0566 15.5067 60.8633 14.9 60.8633 14.14C60.8633 13.5 61.0366 12.92 61.3833 12.4C61.7433 11.8667 62.2633 11.4467 62.9433 11.14C63.6366 10.8333 64.4566 10.68 65.4033 10.68C66.8033 10.68 67.9033 11.0267 68.7033 11.72C69.5166 12.4133 69.9833 13.3333 70.1033 14.48H66.9433C66.8899 14.0933 66.7166 13.7867 66.4233 13.56C66.1433 13.3333 65.7699 13.22 65.3033 13.22C64.9033 13.22 64.5966 13.3 64.3833 13.46C64.1699 13.6067 64.0633 13.8133 64.0633 14.08C64.0633 14.4 64.2299 14.64 64.5633 14.8C64.9099 14.96 65.4433 15.12 66.1633 15.28C66.9899 15.4933 67.6633 15.7067 68.1833 15.92C68.7033 16.12 69.1566 16.4533 69.5433 16.92C69.9433 17.3733 70.1499 17.9867 70.1633 18.76C70.1633 19.4133 69.9766 20 69.6033 20.52C69.2433 21.0267 68.7166 21.4267 68.0233 21.72C67.3433 22.0133 66.5499 22.16 65.6433 22.16Z" fill="#1090CB"/>
<path d="M75.6756 19.36H80.1556V22H72.2556V7.96H75.6756V19.36ZM81.1069 16.4C81.1069 15.2533 81.3202 14.2467 81.7469 13.38C82.1869 12.5133 82.7802 11.8467 83.5269 11.38C84.2735 10.9133 85.1069 10.68 86.0269 10.68C86.8135 10.68 87.5002 10.84 88.0869 11.16C88.6869 11.48 89.1469 11.9 89.4669 12.42V10.84H92.8869V22H89.4669V20.42C89.1335 20.94 88.6669 21.36 88.0669 21.68C87.4802 22 86.7935 22.16 86.0069 22.16C85.1002 22.16 84.2735 21.9267 83.5269 21.46C82.7802 20.98 82.1869 20.3067 81.7469 19.44C81.3202 18.56 81.1069 17.5467 81.1069 16.4ZM89.4669 16.42C89.4669 15.5667 89.2269 14.8933 88.7469 14.4C88.2802 13.9067 87.7069 13.66 87.0269 13.66C86.3469 13.66 85.7669 13.9067 85.2869 14.4C84.8202 14.88 84.5869 15.5467 84.5869 16.4C84.5869 17.2533 84.8202 17.9333 85.2869 18.44C85.7669 18.9333 86.3469 19.18 87.0269 19.18C87.7069 19.18 88.2802 18.9333 88.7469 18.44C89.2269 17.9467 89.4669 17.2733 89.4669 16.42ZM98.7811 12.42C99.1011 11.9 99.5611 11.48 100.161 11.16C100.761 10.84 101.448 10.68 102.221 10.68C103.141 10.68 103.974 10.9133 104.721 11.38C105.468 11.8467 106.054 12.5133 106.481 13.38C106.921 14.2467 107.141 15.2533 107.141 16.4C107.141 17.5467 106.921 18.56 106.481 19.44C106.054 20.3067 105.468 20.98 104.721 21.46C103.974 21.9267 103.141 22.16 102.221 22.16C101.434 22.16 100.748 22.0067 100.161 21.7C99.5744 21.38 99.1144 20.96 98.7811 20.44V22H95.3611V7.2H98.7811V12.42ZM103.661 16.4C103.661 15.5467 103.421 14.88 102.941 14.4C102.474 13.9067 101.894 13.66 101.201 13.66C100.521 13.66 99.9411 13.9067 99.4611 14.4C98.9944 14.8933 98.7611 15.5667 98.7611 16.42C98.7611 17.2733 98.9944 17.9467 99.4611 18.44C99.9411 18.9333 100.521 19.18 101.201 19.18C101.881 19.18 102.461 18.9333 102.941 18.44C103.421 17.9333 103.661 17.2533 103.661 16.4Z" fill="#08D3BB"/>
<path d="M136.254 0.552246L133.536 3.12959L122.583 13.081L119.392 10.2889L116.555 7.71152L111 12.7588L113.837 15.3362L119.746 20.7056L122.465 23.283L125.302 20.7056L139.091 8.17688L141.928 5.59954L136.254 0.552246Z" fill="#08D3BB"/>
</svg>
